{"title":"The Last House on the Left 2009 DVDRip Xvid LKRG","uid":6535824,"size":1342226916,"categoryP":"video","categoryS":"movies","magnet":"?xt=urn:btih:103ff1bb4f7c7262174228c4ac4553b8bb88395b&amp;dn=The+Last+House+on+the+Left+2009+DVDRip+Xvid+LKRG&amp;tr=udp%3A%2F%2Ftracker.openbittorrent.com%3A80&amp;tr=udp%3A%2F%2Fopen.demonii.com%3A1337&amp;tr=udp%3A%2F%2Ftracker.coppersurfer.tk%3A6969&amp;tr=udp%3A%2F%2Fexodus.desync.com%3A6969","seeders":4,"leechers":0,"uploader":"HeroMaster","files":-1,"time":1310506232,"description":":::::: LKRG Presents ::::::\n\n\n::::The Last House on the Left 2009 DVDRip Xvid LKRG::::\n\n\n::PLOT::\n\n\nAfter kidnapping and brutally assaulting two young women, a gang led by a \nprison escapee unknowingly finds refuge at a vacation home belonging the \nparents of one of the victims -- a mother and father who devise an \nincreasingly gruesome series of revenge tactics.\n\n\n::General Info::\n\n\nEncoded By .......: BigPerm1828\nRuntime ..........: 1h 53mn\nFile Size ........: 1.25 GB\nResolution .......: 704x396\nIMDb URL .........: http://www.imdb.com/title/tt0844708/\nGenre ............: Drama | Horror | Thriller\nLanguage .........: English\n\n\nVideo\nID : 0\nFormat : MPEG-4 Visual\nFormat profile : Advanced Simple@L5\nFormat settings, BVOP : Yes\nFormat settings, QPel : No\nFormat settings, GMC : No warppoints\nFormat settings, Matrix : Default (H.263)\nCodec ID : XVID\nCodec ID/Hint : XviD\nDuration : 1h 53mn\nBit rate : 1 123 Kbps\nWidth : 704 pixels\nHeight : 396 pixels\nDisplay aspect ratio : 16:9\nFrame rate : 23.976 fps\nColor space : YUV\nChroma subsampling : 4:2:0\nBit depth : 8 bits\nScan type : Progressive\nCompression mode : Lossy\nBits/(Pixel*Frame) : 0.168\nStream size : 911 MiB (71%)\nWriting library : XviD 1.2.1 (UTC 2008-12-04)\n\n\nAudio\nID : 1\nFormat : AC-3\nFormat/Info : Audio Coding 3\nMode extension : CM (complete main)\nCodec ID : 2000\nDuration : 1h 53mn\nBit rate mode : Constant\nBit rate : 448 Kbps\nChannel(s) : 6 channels\nChannel positions : Front: L C R, Side: L R, LFE\nSampling rate : 48.0 KHz\nBit depth : 16 bits\nCompression mode : Lossy\nVideo delay : 42ms\nStream size : 364 MiB (28%)\nAlignment : Split accross interleaves\nInterleave, duration : 500 ms (11.99 video frames)\nInterleave, preload duration : 500 ms\n\n\n::Screens:::\n\n &lt;a href=&quot;\nhttp://leetleech.org/images/42307915756826947260.png&quot; rel=&quot;nofollow&quot; target=&quot;_NEW&quot;&gt;\nhttp://leetleech.org/images/42307915756826947260.png&lt;/a&gt;\n &lt;a href=&quot;\nhttp://leetleech.org/images/04160087454440921527.png&quot; rel=&quot;nofollow&quot; target=&quot;_NEW&quot;&gt;\nhttp://leetleech.org/images/04160087454440921527.png&lt;/a&gt;\n &lt;a href=&quot;\nhttp://leetleech.org/images/64437236444133819405.png&quot; rel=&quot;nofollow&quot; target=&quot;_NEW&quot;&gt;\nhttp://leetleech.org/images/64437236444133819405.png&lt;/a&gt;\n\n\nENJOY!","torrent":{"xt":"urn:btih:103ff1bb4f7c7262174228c4ac4553b8bb88395b","amp;dn":"The+Last+House+on+the+Left+2009+DVDRip+Xvid+LKRG","amp;tr":["udp%3A%2F%2Ftracker.openbittorrent.com%3A80","udp%3A%2F%2Fopen.demonii.com%3A1337","udp%3A%2F%2Ftracker.coppersurfer.tk%3A6969","udp%3A%2F%2Fexodus.desync.com%3A6969"],"infoHash":"103ff1bb4f7c7262174228c4ac4553b8bb88395b","infoHashBuffer":{"type":"Buffer","data":[16,63,241,187,79,124,114,98,23,66,40,196,172,69,83,184,187,136,57,91]},"announce":[],"urlList":[]}}